<svg width="17" height="17" viewBox="0 0 17 17" fill="none" xmlns="http://www.w3.org/2000/svg">
<path fill-rule="evenodd" clip-rule="evenodd" d="M8.64359 0.833496C6.52263 0.833496 6.25646 0.84277 5.42343 0.880679C4.59203 0.918751 4.02454 1.05038 3.52798 1.2435C3.01433 1.44297 2.57862 1.7098 2.14454 2.14405C1.71013 2.57813 1.4433 3.01384 1.24318 3.52732C1.04956 4.02404 0.917777 4.59171 0.880356 5.42278C0.843098 6.2558 0.833336 6.52214 0.833336 8.6431C0.833336 10.7641 0.842772 11.0294 0.880519 11.8624C0.918753 12.6938 1.05038 13.2613 1.24334 13.7579C1.44297 14.2715 1.7098 14.7073 2.14405 15.1413C2.57797 15.5758 3.01368 15.8432 3.527 16.0427C4.02389 16.2358 4.59155 16.3675 5.42278 16.4055C6.25581 16.4434 6.52182 16.4527 8.64262 16.4527C10.7637 16.4527 11.0291 16.4434 11.8621 16.4055C12.6935 16.3675 13.2617 16.2358 13.7586 16.0427C14.272 15.8432 14.7071 15.5758 15.141 15.1413C15.5754 14.7073 15.8423 14.2715 16.0424 13.7581C16.2344 13.2613 16.3662 12.6937 16.4052 11.8626C16.4426 11.0296 16.4524 10.7641 16.4524 8.6431C16.4524 6.52214 16.4426 6.25596 16.4052 5.42294C16.3662 4.59154 16.2344 4.02405 16.0424 3.52748C15.8423 3.01384 15.5754 2.57813 15.141 2.14405C14.7066 1.70964 14.2722 1.44281 13.7581 1.2435C13.2602 1.05038 12.6924 0.918751 11.861 0.880679C11.028 0.84277 10.7628 0.833496 8.64115 0.833496H8.64359ZM7.94297 2.24083C8.1509 2.2405 8.38291 2.24083 8.64356 2.24083C10.7287 2.24083 10.9759 2.24831 11.7993 2.28574C12.5607 2.32055 12.974 2.44778 13.2493 2.55468C13.6137 2.69623 13.8736 2.86544 14.1467 3.13877C14.4201 3.41211 14.5893 3.67243 14.7311 4.03688C14.838 4.31184 14.9654 4.7251 15.0001 5.48653C15.0375 6.3098 15.0456 6.5571 15.0456 8.64129C15.0456 10.7255 15.0375 10.9728 15.0001 11.796C14.9653 12.5575 14.838 12.9707 14.7311 13.2457C14.5896 13.6102 14.4201 13.8697 14.1467 14.1428C13.8734 14.4162 13.6139 14.5854 13.2493 14.7269C12.9743 14.8343 12.5607 14.9612 11.7993 14.996C10.976 15.0335 10.7287 15.0416 8.64356 15.0416C6.55823 15.0416 6.31109 15.0335 5.48783 14.996C4.72639 14.9609 4.31313 14.8337 4.03768 14.7268C3.67323 14.5852 3.41291 14.416 3.13958 14.1427C2.86624 13.8693 2.69703 13.6097 2.55516 13.2451C2.44826 12.9701 2.32087 12.5568 2.28621 11.7954C2.24879 10.9721 2.24131 10.7248 2.24131 8.63934C2.24131 6.55385 2.24879 6.30785 2.28621 5.48458C2.32103 4.72315 2.44826 4.30989 2.55516 4.0346C2.69671 3.67015 2.86624 3.40983 3.13958 3.13649C3.41291 2.86316 3.67323 2.69395 4.03768 2.55208C4.31297 2.44469 4.72639 2.31779 5.48783 2.28281C6.20826 2.25027 6.48746 2.2405 7.94297 2.23888V2.24083ZM12.8123 3.53755C12.2949 3.53755 11.8751 3.95683 11.8751 4.47438C11.8751 4.99177 12.2949 5.41153 12.8123 5.41153C13.3297 5.41153 13.7494 4.99177 13.7494 4.47438C13.7494 3.95699 13.3297 3.53755 12.8123 3.53755ZM8.64361 4.63252C6.42877 4.63252 4.63305 6.42824 4.63305 8.64308C4.63305 10.8579 6.42877 12.6528 8.64361 12.6528C10.8584 12.6528 12.6535 10.8579 12.6535 8.64308C12.6535 6.42824 10.8584 4.63252 8.64361 4.63252ZM8.64358 6.03988C10.0812 6.03988 11.2468 7.2053 11.2468 8.64308C11.2468 10.0807 10.0812 11.2463 8.64358 11.2463C7.20579 11.2463 6.04037 10.0807 6.04037 8.64308C6.04037 7.2053 7.20579 6.03988 8.64358 6.03988Z" fill="#69A911"/>
</svg>
