<svg width="18" height="19" viewBox="0 0 18 19" fill="none" xmlns="http://www.w3.org/2000/svg">
<path d="M14.4961 8.61211C14.4961 12.8869 8.99999 16.551 8.99999 16.551C8.99999 16.551 3.50385 12.8869 3.50385 8.61211C3.50385 7.15444 4.0829 5.75648 5.11363 4.72575C6.14435 3.69502 7.54232 3.11597 8.99999 3.11597C10.4577 3.11597 11.8556 3.69502 12.8863 4.72575C13.9171 5.75648 14.4961 7.15444 14.4961 8.61211Z" stroke="#69A911" stroke-linecap="round" stroke-linejoin="round"/>
<path d="M8.99995 10.4441C10.0118 10.4441 10.832 9.62389 10.832 8.61208C10.832 7.60026 10.0118 6.78003 8.99995 6.78003C7.98814 6.78003 7.16791 7.60026 7.16791 8.61208C7.16791 9.62389 7.98814 10.4441 8.99995 10.4441Z" stroke="#69A911" stroke-linecap="round" stroke-linejoin="round"/>
</svg>
