<svg width="19" height="19" viewBox="0 0 19 19" fill="none" xmlns="http://www.w3.org/2000/svg">
<path d="M11.0697 5.34055C11.6879 5.46116 12.2559 5.76347 12.7013 6.20881C13.1466 6.65414 13.4489 7.22224 13.5695 7.84038M11.0697 2.80908C12.354 2.95175 13.5516 3.52686 14.4658 4.43999C15.3801 5.35311 15.9567 6.54997 16.101 7.83405M15.4681 12.8843V14.7829C15.4689 14.9592 15.4328 15.1337 15.3621 15.2951C15.2915 15.4566 15.188 15.6016 15.0581 15.7208C14.9282 15.8399 14.7749 15.9306 14.6079 15.9871C14.4409 16.0436 14.264 16.0645 14.0885 16.0487C12.141 15.8371 10.2704 15.1716 8.62684 14.1058C7.09772 13.1341 5.8013 11.8377 4.82963 10.3086C3.76007 8.65754 3.09446 6.77779 2.88673 4.8216C2.87091 4.64659 2.89171 4.47021 2.9478 4.30368C3.00389 4.13715 3.09404 3.98412 3.21251 3.85434C3.33098 3.72456 3.47517 3.62087 3.63591 3.54987C3.79665 3.47887 3.97041 3.44212 4.14614 3.44195H6.04474C6.35187 3.43893 6.64963 3.54769 6.8825 3.74796C7.11538 3.94824 7.26749 4.22636 7.31047 4.53048C7.39085 5.13804 7.53894 5.73483 7.75348 6.30884C7.83863 6.53536 7.85706 6.78154 7.80658 7.01821C7.75611 7.25488 7.63885 7.47212 7.46869 7.64419L6.66495 8.44793C7.56587 10.0323 8.87774 11.3442 10.4622 12.2451L11.2659 11.4414C11.438 11.2712 11.6552 11.154 11.8919 11.1035C12.1285 11.053 12.3747 11.0715 12.6012 11.1566C13.1753 11.3711 13.7721 11.5192 14.3796 11.5996C14.687 11.643 14.9678 11.7978 15.1685 12.0347C15.3692 12.2716 15.4758 12.574 15.4681 12.8843Z" stroke="#69A911" stroke-linecap="round" stroke-linejoin="round"/>
</svg>
