<svg width="11" height="14" viewBox="0 0 11 14" fill="none" xmlns="http://www.w3.org/2000/svg">
<path d="M2.01204e-06 1.81995V12.18C2.01204e-06 12.97 0.870002 13.45 1.54 13.02L9.68 7.83995C9.82251 7.74976 9.9399 7.62499 10.0212 7.47725C10.1026 7.32951 10.1452 7.1636 10.1452 6.99495C10.1452 6.8263 10.1026 6.66039 10.0212 6.51265C9.9399 6.36491 9.82251 6.24014 9.68 6.14995L1.54 0.97995C1.38917 0.882395 1.2148 0.827357 1.0353 0.820644C0.855793 0.81393 0.677803 0.85579 0.520105 0.941807C0.362408 1.02782 0.23085 1.15481 0.13931 1.30936C0.0477698 1.46392 -0.000358634 1.64032 2.01204e-06 1.81995Z" fill="white"/>
</svg>
