<svg width="18" height="17" viewBox="0 0 18 17" fill="none" xmlns="http://www.w3.org/2000/svg">
<path d="M16.65 5.75411L11.81 5.33411L9.92 0.884111C9.58 0.0741113 8.42 0.0741113 8.08 0.884111L6.19 5.34411L1.36 5.75411C0.479996 5.82411 0.119996 6.92411 0.789996 7.50411L4.46 10.6841L3.36 15.4041C3.16 16.2641 4.09 16.9441 4.85 16.4841L9 13.9841L13.15 16.4941C13.91 16.9541 14.84 16.2741 14.64 15.4141L13.54 10.6841L17.21 7.50411C17.88 6.92411 17.53 5.82411 16.65 5.75411V5.75411ZM9 12.1141L5.24 14.3841L6.24 10.1041L2.92 7.22411L7.3 6.84411L9 2.81411L10.71 6.85411L15.09 7.23411L11.77 10.1141L12.77 14.3941L9 12.1141Z" fill="#F2BB13"/>
</svg>
