<svg width="16" height="13" viewBox="0 0 16 13" fill="none" xmlns="http://www.w3.org/2000/svg">
<path fill-rule="evenodd" clip-rule="evenodd" d="M7.82335 3.90183L7.85408 4.4085L7.34196 4.34646C5.47785 4.10863 3.84931 3.30209 2.46659 1.94751L1.79059 1.27539L1.61647 1.77172C1.24775 2.87814 1.48332 4.04659 2.2515 4.83246C2.66119 5.26675 2.56901 5.32879 1.86229 5.07028C1.61647 4.98756 1.40138 4.92552 1.3809 4.95654C1.3092 5.02892 1.55502 5.96989 1.74962 6.34214C2.01592 6.85916 2.55877 7.36584 3.15283 7.66571L3.65471 7.90353L3.06065 7.91387C2.48707 7.91387 2.46659 7.92421 2.52804 8.14136C2.73289 8.81348 3.54204 9.52697 4.44337 9.83717L5.0784 10.0543L4.52531 10.3852C3.70592 10.8609 2.74313 11.1297 1.78035 11.1504C1.31944 11.1607 0.940475 11.2021 0.940475 11.2331C0.940475 11.3365 2.19005 11.9156 2.91725 12.1431C5.09888 12.8152 7.6902 12.5257 9.63625 11.3779C11.019 10.561 12.4017 8.93757 13.047 7.36584C13.3952 6.52827 13.7434 4.9979 13.7434 4.26374C13.7434 3.78808 13.7742 3.72604 14.3477 3.15732C14.6857 2.82643 15.0033 2.46452 15.0647 2.36112C15.1671 2.16465 15.1569 2.16465 14.6345 2.34044C13.7639 2.65065 13.641 2.60929 14.0712 2.14397C14.3887 1.81308 14.7677 1.21334 14.7677 1.03756C14.7677 1.00654 14.614 1.05824 14.4399 1.1513C14.2556 1.2547 13.8459 1.40981 13.5386 1.50287L12.9855 1.67866L12.4836 1.33743C12.2071 1.1513 11.8179 0.944495 11.613 0.882453C11.0907 0.737689 10.2918 0.758369 9.82062 0.923815C8.54032 1.38913 7.73117 2.58861 7.82335 3.90183Z" fill="#69A911"/>
</svg>
