<svg width="16" height="12" viewBox="0 0 16 12" fill="none" xmlns="http://www.w3.org/2000/svg">
<path fill-rule="evenodd" clip-rule="evenodd" d="M14.1736 0.609082C14.8457 0.793499 15.3749 1.33688 15.5546 2.02693C15.881 3.27757 15.881 5.88702 15.881 5.88702C15.881 5.88702 15.881 8.49639 15.5546 9.74711C15.3749 10.4372 14.8457 10.9805 14.1736 11.1651C12.9557 11.5001 8.07143 11.5001 8.07143 11.5001C8.07143 11.5001 3.1872 11.5001 1.96918 11.1651C1.29712 10.9805 0.767842 10.4372 0.588223 9.74711C0.261909 8.49639 0.261909 5.88702 0.261909 5.88702C0.261909 5.88702 0.261909 3.27757 0.588223 2.02693C0.767842 1.33688 1.29712 0.793499 1.96918 0.609082C3.1872 0.273926 8.07143 0.273926 8.07143 0.273926C8.07143 0.273926 12.9557 0.273926 14.1736 0.609082ZM6.60716 3.69054V8.57149L10.5119 6.13111L6.60716 3.69054Z" fill="#69A911"/>
</svg>
